<svg width="680" height="680" viewBox="0 0 680 680" xmlns="http://www.w3.org/2000/svg">
<defs>
<linearGradient id="skyGrad" x1="0" y1="0" x2="680" y2="680" gradientUnits="userSpaceOnUse">
<stop offset="0%" stop-color="#1b1f3b"/>
<stop offset="55%" stop-color="#3a2f6b"/>
<stop offset="100%" stop-color="#a8548c"/>
</linearGradient>
<linearGradient id="glassGrad" x1="0" y1="0" x2="0" y2="1">
<stop offset="0%" stop-color="#ffffff" stop-opacity="0.32"/>
<stop offset="100%" stop-color="#ffffff" stop-opacity="0.08"/>
</linearGradient>
<radialGradient id="sunGlow" cx="50%" cy="50%" r="50%">
<stop offset="0%" stop-color="#ffd166" stop-opacity="0.9"/>
<stop offset="100%" stop-color="#ffd166" stop-opacity="0"/>
</radialGradient>
</defs>
<rect x="20" y="20" width="640" height="640" rx="140" fill="url(#skyGrad)"/>
<circle cx="500" cy="180" r="70" fill="url(#sunGlow)"/>
<path d="M 480 140 A 46 46 0 1 0 480 220 A 58 58 0 1 1 480 140 Z" fill="#f4e8ff" opacity="0.85"/>
<circle cx="200" cy="500" r="2.5" fill="#ffffff" opacity="0.5"/>
<circle cx="150" cy="420" r="2" fill="#ffffff" opacity="0.4"/>
<circle cx="230" cy="440" r="1.8" fill="#ffffff" opacity="0.35"/>
<circle cx="120" cy="200" r="2" fill="#ffffff" opacity="0.4"/>
<circle cx="540" cy="330" r="1.8" fill="#ffffff" opacity="0.3"/>
<circle cx="340" cy="380" r="190" fill="url(#glassGrad)" stroke="#ffffff" stroke-opacity="0.55" stroke-width="3"/>
<circle cx="340" cy="380" r="190" fill="none" stroke="#ffffff" stroke-opacity="0.18" stroke-width="14"/>
<circle cx="340" cy="380" r="8" fill="#fff7ec"/>
<circle cx="340" cy="220" r="6" fill="#fff7ec" opacity="0.85"/>
<circle cx="500" cy="380" r="6" fill="#fff7ec" opacity="0.85"/>
<circle cx="340" cy="540" r="6" fill="#fff7ec" opacity="0.85"/>
<circle cx="180" cy="380" r="6" fill="#fff7ec" opacity="0.85"/>
<line x1="340" y1="380" x2="340" y2="270" stroke="#fff7ec" stroke-width="10" stroke-linecap="round"/>
<line x1="340" y1="380" x2="420" y2="410" stroke="#fff7ec" stroke-width="10" stroke-linecap="round"/>
<rect x="300" y="150" width="80" height="26" rx="13" fill="#1b1f3b" opacity="0.55"/>
<rect x="310" y="130" width="60" height="22" rx="11" fill="#1b1f3b" opacity="0.4" transform="rotate(-18 340 141)"/>
<rect x="310" y="130" width="60" height="22" rx="11" fill="#1b1f3b" opacity="0.4" transform="rotate(18 340 141)"/>
</svg>
